<?xml version="1.0" encoding="UTF-8"?>
<svg id="Layer_1" data-name="Layer 1" xmlns="http://www.w3.org/2000/svg" xmlns:xlink="http://www.w3.org/1999/xlink" version="1.1" viewBox="0 0 44.7 44.2">
  <defs>
    <style>
      .cls-1 {
        clip-path: url(#clippath);
      }

      .cls-2 {
        fill: none;
      }

      .cls-2, .cls-3 {
        stroke-width: 0px;
      }

      .cls-4 {
        clip-path: url(#clippath-1);
      }

      .cls-3 {
        fill: #f05244;
      }
    </style>
    <clipPath id="clippath">
      <rect class="cls-2" x=".4" y="-2.1" width="222.6" height="61"/>
    </clipPath>
    <clipPath id="clippath-1">
      <rect class="cls-2" x=".4" y=".9" width="44" height="43"/>
    </clipPath>
  </defs>
  <g id="bemahub-logo-1">
    <g class="cls-1">
      <g id="BemahubLogOrangeBlackWordart">
        <g id="Frame">
          <g id="Lion2">
            <g class="cls-4">
              <g id="Icon">
                <g id="lion_02" data-name="lion 02">
                  <path id="Vector" class="cls-3" d="M11.4,27.7c-1-.4-1.5-1.1-2.4-2-1-.9-4.5-1-3.9.9.5,1.9-1.3,3.7-.3,5.6-.7-2.3,3.4-4.8,6.7-4.5Z"/>
                  <path id="Vector_2" data-name="Vector 2" class="cls-3" d="M18.5,20.5c-.3,0-.6,0-1.1-.2,0,.1-.1.3-.1.4.5.1.9.2,1.2.2v-.4Z"/>
                  <path id="Vector_3" data-name="Vector 3" class="cls-3" d="M19,11.8c-2.7-.4-15.3.2-17.5,3.9C1.3,10.5,2.3,3.5,7,.9c-3.2,6.3,5.3,10.2,12,10.9Z"/>
                  <path id="Vector_4" data-name="Vector 4" class="cls-3" d="M3.5,27.3c.4,1.8-5.2,12.4,1.4,14.9,3.4,1.3,8.5.9,11.2.9-6.9-1.7-13.6-6.9-12.6-15.8Z"/>
                  <path id="Vector_5" data-name="Vector 5" class="cls-3" d="M18.7,28.2c1.8.2,3.5-.7,3.8-2.1.3-1.4-1-3.3-2.8-3.6h0c-1.1-.2-2.5,0-3.4.8,0,1.8,1.1,3.6,2.3,4.8,0,0,0,0,0,0ZM17.3,27.9c-.8-1.2-1.5-2.4-1.7-3.7-.2.3-.3.7-.4,1.2-.2,1,.8,2,2,2.5ZM22.4,21.1c.6-1.5,1.9-3.2,3.4-4.5.5-.4,1-.8,1.6-1.2,0,0,0,0,0,0-.3-.3-.7-.5-1.1-.8-2.2.4-4,1.2-5.4,2.3-1.1.9-2,1.8-2.6,2.8,0,0,.2.1.2.2.6.6,2.2,1,3.8,1.3ZM16.5,30.2c.5-.5.9-.9,1.2-1-1.2-.4-2.3-.7-3.4-.8.5.7,1.3,1.4,2.2,1.8ZM26.2,26.8c0-.3,0-.6,0-.8,0-1.9-1.5-3.7-3.8-4.5h-.2c0,0,0,0,0,0-2.1-.4-3.7-.7-4.1-1.2-.1,0-.2.2-.3.2-.2.3-.3.6-.4.9h0c0,0-.1.1-.1.1-.4.1-.8.3-1.1.5l-.9.6c-.7.6-1.3,1.3-1.6,2.1.3.6.7,1.1,1.1,1.7,0-.4,0-.8,0-1.2.1-.6.4-1.1.9-1.5,0-.3,0-.5.1-.8l.8-.6c0,.3-.1.5-.2.8,1-.6,2.3-.9,3.7-.8,2.5.3,4.2,2.2,3.7,4.1-.4,1.7-2.4,3-4.6,2.9-.1.6-.2,1.1-.3,1.6.3,0,.6,0,.9,0,3.1,0,5.8-1.7,6.3-4.1ZM16.1,28.2c0,0-.1-.1-.2-.2-.9-.5-1.7-1.4-2.4-2.4,0,.1,0,.2,0,.3,0,.7.2,1.4.6,2,.6,0,1.3.1,2.1.2ZM28.2,22c2.8.5,7.5,2.9,9,4-.5-2-1.6-8-7.7-11.2-.3.1-.6.3-1,.4,2.8,2.6,0,5.9-.3,6.8ZM17.1,30.5c.2,0,.4.1.7.2,0-.4,0-.8,0-1-.2.3-.4.5-.7.8ZM16.9,21.1s0,0,.1,0c0-.1.1-.3.2-.4-.5-.2-1.1-.4-1.7-.6-1.2-.5-2.5-1-3.5-1.5-.3-.1-.5-.3-.7-.4.3.8.6,1.9,1,2.9.4,1,.8,2,1.3,2.7.2-.3.3-.6.6-.8-.4-.6-.8-1.8-1.2-2.8.5-.2,3.1.6,4,.9ZM9.9,26c.8,1,1.9,1.6,3.4,1.9-.3-.6-.5-1.3-.5-1.9s0-.6.1-.9c0,0,0,0,0,0-.5-.7-.9-1.4-1.5-2.1-1.7-2.3-11.3-1.5-7.1,2.8,0-2.2,4.1-1.7,5.5.3h0ZM16.2,30.5c-1.1-.6-2.1-1.3-2.6-2.3-3.9-.4-6.5.8-7.5,2-1.8,3.9,1.6,9,10,12.5-4.9-3.9-2.1-9.6.1-12.2ZM27.7,15.7c-.5.3-1,.7-1.5,1.2-1.5,1.3-2.7,2.9-3.3,4.3,0,0,0,0,0,0,1.8.3,3.7.5,4.5.6,0,0,2.7-3.5.2-6.1ZM7.7,20.7c2.1,0,3.4.6,4.3,1.4-.1-.3-.2-.6-.3-.9-.5-1.3-.9-2.6-1.1-3.5l-.2-.7.7.5c.3.2,1.2.7,2.3,1.2,1.1.5,2.5,1,3.6,1.4.1,0,.3,0,.4.1,0,0,.2-.2.3-.3,0,0,0-.1.1-.2-1.8-1.9-4.5-3.8-5.1-4.4-.6-.6-8.4-3.5-11.1,2-2.7,5.5,0,7.8,2.8,10-2.8-2.3-3.3-6.5,3.4-6.6ZM43.8,34.5c2.9-2.9-5.8-7.1-6.1-7.8-4-2.9-9.4-4.1-13.5-4.9,1.7,1,2.7,2.6,2.7,4.2s0,.6-.1.9c-.6,2.6-3.5,4.5-6.9,4.5-.3,0-.6,0-.9,0,0,5.1,5.9,6.6,8.5,7.9,2.9,1.4,3.9,3.5,4.4,4.4,1.6.2,3.5-1.6,5.1-3-1.8.7-6.8-1.1-5.2-2.5,1.6-1.4,7.3.7,6.3,1.4,4.4-.4,5.5-4.3,4.8-4.8-.8-.5-.8-.6-2.1-2.3.8,1,2,1.7,3.1,2ZM21.2,36.9c-2.5-1.3-3.2-4-3.4-5.7-.3,0-.7-.2-1-.3-4.8,6.3-2.4,12.8,5.4,13.1-4.5-.9-2.3-5.7-1-7ZM17.9,19.3c.6-.9,1.5-1.9,2.6-2.7,1.3-1,3-1.9,5.2-2.3-4.5-2.4-11.9-2.5-17.7-1,3.6-.5,6.4,2.9,9.9,6ZM28.1,14.9c.3-.1.5-.3.8-.4-.1,0-.2-.1-.3-.2-.4,0-.8,0-1.2,0,.3.2.5.3.7.5ZM27.7,14c-1.3-.5-2.7-.9-4.3-1.1,1.4.3,2.6.7,3.4,1.2.3,0,.6,0,.9,0Z"/>
                  <path id="Vector_6" data-name="Vector 6" class="cls-3" d="M19.8,22.6h0c-1.8-.2-4.2.5-4.4,2.8-.3,1.4,1.6,2.6,3.4,2.9,1.8.2,3.5-.7,3.8-2.1.3-1.4-1-3.3-2.8-3.6Z"/>
                  <path id="Vector_7" data-name="Vector 7" class="cls-3" d="M30.9,14.3c-8.5-.9-12.7,4.1-13.7,7-2,.7-3.5,2.1-3.9,3.9-.6,2.8,1.8,5.3,5.4,5.8,3.6.5,6.8-1.3,7.4-4.1.5-2.4-.8-4.6-3.5-5.5,1.1-2.9,5.2-6.9,8.3-7ZM23.8,26.3c-.4,1.9-2.8,3.2-5.3,2.9-2.5-.3-4.2-2.2-3.7-4.1.4-1.9,2.8-3.2,5.3-2.9,2.5.3,4.2,2.2,3.7,4.1Z"/>
                </g>
              </g>
            </g>
          </g>
        </g>
      </g>
    </g>
  </g>
</svg>