<?xml version="1.0" encoding="UTF-8"?>
<svg id="Layer_1" data-name="Layer 1" xmlns="http://www.w3.org/2000/svg" xmlns:xlink="http://www.w3.org/1999/xlink" version="1.1" viewBox="0 0 173 61">
  <defs>
    <style>
      .cls-1 {
        fill: #ef433e;
      }

      .cls-1, .cls-2, .cls-3 {
        stroke-width: 0px;
      }

      .cls-4 {
        clip-path: url(#clippath);
      }

      .cls-2 {
        fill: none;
      }

      .cls-5 {
        clip-path: url(#clippath-1);
      }

      .cls-6 {
        clip-path: url(#clippath-2);
      }

      .cls-3 {
        fill: #231f20;
      }
    </style>
    <clipPath id="clippath">
      <rect class="cls-2" width="172.6" height="61"/>
    </clipPath>
    <clipPath id="clippath-1">
      <rect class="cls-2" x="0" y="17" width="102" height="27"/>
    </clipPath>
    <clipPath id="clippath-2">
      <rect class="cls-2" x="108" y="17.3" width="64.6" height="26.4"/>
    </clipPath>
  </defs>
  <g id="bemahub-logo-2">
    <g class="cls-4">
      <g id="BemahubLogOrangeBlackWordart">
        <g id="Bema">
          <g class="cls-5">
            <g id="Icon">
              <g id="bema">
                <path id="Vector" class="cls-1" d="M83.3,31.3v-6.3c2.7-1.7,5.8-2.5,9.2-2.5s5.7.8,7.2,2.4c1.5,1.6,2.3,4,2.3,7.2v11.6h-9.6v-1.6c-1.4,1.2-3,1.8-4.7,1.8s-2.6-.5-3.6-1.6c-.9-1-1.4-2.4-1.4-3.9s.6-3.3,1.8-4.4c1.2-1.1,2.7-1.7,4.6-1.7s2.2.2,3.3.5c0-1-.3-1.7-1-2.3-.7-.5-1.6-.8-2.8-.8-1.8,0-3.5.6-5.4,1.7ZM92.4,39v-2.9c-.6-.2-1.1-.3-1.6-.3s-1,.2-1.4.5c-.4.3-.5.8-.5,1.3s.2,1,.6,1.4c.4.4.9.6,1.4.6s1.1-.2,1.5-.6Z"/>
                <path id="Vector_2" data-name="Vector 2" class="cls-1" d="M55.3,22.6v2.6c1.5-1.9,3.5-2.8,5.7-2.8s4.7,1.2,6,3.6c1.1-1.3,2.1-2.2,3.2-2.8,1.1-.6,2.3-.9,3.6-.9,2,0,3.6.7,4.8,2.1,1.2,1.4,1.7,3.4,1.7,5.9v13.2h-9v-12.6c0-.7-.2-1.3-.5-1.7-.3-.4-.8-.6-1.3-.6s-1.2.2-1.7.7v14.3h-9v-12.6c0-.7-.2-1.3-.5-1.7-.3-.4-.7-.6-1.3-.6s-1.2.2-1.7.7v14.2h-9.6v-21.1h9.6,0Z"/>
                <path id="Vector_3" data-name="Vector 3" class="cls-1" d="M43.6,35.7v3.7c-2.1,3.1-5.1,4.7-9,4.7s-5.8-1-7.8-3.1c-2-2-3-4.7-3-8s.9-5.7,2.7-7.7c1.8-2,4.2-3,7-3s2.8.3,4.1.8c1.3.6,2.3,1.4,3.3,2.5.9,1.1,1.6,2.3,2,3.8.4,1.4.6,3.2.6,5.2h-9.8c.4,1.1.9,1.9,1.8,2.5.8.6,1.8.9,2.8.9,2.1,0,3.9-.8,5.2-2.3h0ZM33.3,30.8h4.5c0-1-.3-1.9-.7-2.5-.4-.6-1-.9-1.6-.9s-1.1.3-1.5.8c-.4.6-.7,1.4-.7,2.5Z"/>
                <path id="Vector_4" data-name="Vector 4" class="cls-1" d="M9.6,17v6.3c1.2-.5,2.4-.8,3.6-.8,2.6,0,4.8,1,6.6,3,1.7,2,2.6,4.5,2.6,7.5s-.9,5.6-2.7,7.7c-1.8,2.1-4.4,3.1-7.7,3.1H0v-26.7h9.6ZM9.6,36h.2c.8,0,1.4,0,1.9-.1.4,0,.8-.3,1.1-.7.3-.4.4-1,.4-1.8s-.2-1.4-.6-1.9c-.4-.5-.9-.7-1.5-.7s-1,.2-1.5.5v4.8h0Z"/>
              </g>
            </g>
          </g>
        </g>
        <g id="Hub">
          <g class="cls-6">
            <g id="Icon_2" data-name="Icon 2">
              <g id="lion_02" data-name="lion 02">
                <path id="Vector_5" data-name="Vector 5" class="cls-3" d="M108,42.9v-24.2h3.6v24.2h-3.6ZM111.2,32.1v-3h15.3v3h-15.3ZM126.2,42.9v-24.2h3.6v24.2h-3.6Z"/>
                <path id="Vector_2_2" data-name="Vector 2 2" class="cls-3" d="M140.5,43.1c-1.6,0-3.1-.3-4.3-.9-1.2-.6-2.2-1.5-2.9-2.6-.7-1.2-1-2.7-1-4.5v-10.5h3.5v10.2c0,1.8.5,3.1,1.4,4,.9.9,2.2,1.3,3.8,1.3s2.3-.2,3.2-.7c.9-.5,1.6-1.2,2.1-2.1.5-.9.7-2,.7-3.3v-9.5h3.5v18.3h-3.3v-4.9l.5,1.3c-.6,1.2-1.6,2.2-2.8,2.8-1.3.7-2.7,1-4.2,1Z"/>
                <path id="Vector_3_2" data-name="Vector 3 2" class="cls-3" d="M152.4,42.9v-25.6h3.5v12.2l-.4,4.2.2,4.2v4.9h-3.3ZM162.6,43.1c-1.6,0-3.1-.4-4.4-1.1-1.3-.7-2.4-1.7-3.1-3.1-.8-1.4-1.1-3.1-1.1-5.2s.4-3.8,1.2-5.2c.8-1.4,1.8-2.4,3.2-3.1,1.3-.7,2.8-1,4.4-1s3.6.4,5,1.2c1.4.8,2.6,1.9,3.4,3.3.8,1.4,1.3,3,1.3,4.9s-.4,3.5-1.3,4.9c-.8,1.4-2,2.5-3.4,3.3-1.5.8-3.1,1.2-5,1.2ZM162.3,40.2c1.2,0,2.3-.3,3.3-.8,1-.5,1.8-1.3,2.3-2.3.6-1,.9-2.1.9-3.4s-.3-2.4-.9-3.4c-.6-1-1.3-1.7-2.3-2.2-1-.5-2.1-.8-3.3-.8s-2.3.3-3.3.8c-1,.5-1.8,1.3-2.3,2.2-.6,1-.9,2.1-.9,3.4s.3,2.4.9,3.4c.6,1,1.3,1.7,2.3,2.3,1,.5,2.1.8,3.3.8Z"/>
              </g>
            </g>
          </g>
        </g>
      </g>
    </g>
  </g>
</svg>